<svg xmlns="http://www.w3.org/2000/svg" viewBox="0 0 200 200" width="200" height="200">
  <defs>
    <radialGradient id="aura" cx="50%" cy="50%" r="50%"><stop offset="0%" stop-color="#f5d76e" stop-opacity="0.6"/><stop offset="100%" stop-color="#6b2d8c" stop-opacity="0"/></radialGradient>
    <linearGradient id="hanbok" x1="0" x2="0" y1="0" y2="1"><stop offset="0%" stop-color="#8b3aa8"/><stop offset="100%" stop-color="#4a1d6b"/></linearGradient>
  </defs>
  <circle cx="100" cy="100" r="95" fill="url(#aura)"/>
  <path d="M 55 135 Q 100 120 145 135 L 155 185 L 45 185 Z" fill="url(#hanbok)" stroke="#f5d76e" stroke-width="2"/>
  <path d="M 95 135 L 95 175 L 92 178 L 98 178 Z" fill="#f5d76e"/>
  <path d="M 105 135 L 108 165 L 100 168 Z" fill="#e8c547"/>
  <ellipse cx="100" cy="90" rx="42" ry="38" fill="#fefefe" stroke="#d4c4e8" stroke-width="1.5"/>
  <path d="M 62 65 L 70 35 L 85 60 Z" fill="#fefefe" stroke="#d4c4e8" stroke-width="1.5"/>
  <path d="M 138 65 L 130 35 L 115 60 Z" fill="#fefefe" stroke="#d4c4e8" stroke-width="1.5"/>
  <path d="M 68 55 L 72 42 L 80 56 Z" fill="#ffb3d1"/>
  <path d="M 132 55 L 128 42 L 120 56 Z" fill="#ffb3d1"/>
  <circle cx="100" cy="68" r="4" fill="#f5d76e"/><circle cx="100" cy="68" r="2" fill="#c0392b"/>
  <path d="M 78 92 Q 85 86 92 92" fill="none" stroke="#2d1b4e" stroke-width="2.5" stroke-linecap="round"/>
  <path d="M 108 92 Q 115 86 122 92" fill="none" stroke="#2d1b4e" stroke-width="2.5" stroke-linecap="round"/>
  <text x="70" y="88" fill="#f5d76e" font-size="8">✦</text>
  <text x="124" y="88" fill="#f5d76e" font-size="8">✦</text>
  <path d="M 97 100 L 103 100 L 100 104 Z" fill="#ffb3d1"/>
  <path d="M 100 104 Q 96 108 92 106" fill="none" stroke="#2d1b4e" stroke-width="1.5" stroke-linecap="round"/>
  <path d="M 100 104 Q 104 108 108 106" fill="none" stroke="#2d1b4e" stroke-width="1.5" stroke-linecap="round"/>
  <line x1="65" y1="100" x2="78" y2="102" stroke="#a89bc4" stroke-width="1"/>
  <line x1="65" y1="106" x2="78" y2="106" stroke="#a89bc4" stroke-width="1"/>
  <line x1="135" y1="100" x2="122" y2="102" stroke="#a89bc4" stroke-width="1"/>
  <line x1="135" y1="106" x2="122" y2="106" stroke="#a89bc4" stroke-width="1"/>
  <text x="20" y="60" fill="#f5d76e" font-size="14">✦</text>
  <text x="170" y="50" fill="#f5d76e" font-size="10">✧</text>
  <text x="170" y="120" fill="#f5d76e" font-size="12">✦</text>
  <text x="15" y="130" fill="#f5d76e" font-size="10">✧</text>
</svg>